<?xml version="1.0"?>

<svg xmlns="http://www.w3.org/2000/svg" viewBox="0 0 300 165" role="img" aria-label="BabyKawaii Shop">
  <defs>
    

    
    <filter id="onesie-glow" x="-15%" y="-15%" width="130%" height="135%">
      <feDropShadow dx="0" dy="3" stdDeviation="4" flood-color="#E8A090" flood-opacity="0.30"></feDropShadow>
    </filter>

    
    <linearGradient id="onesie-grad" x1="0%" y1="0%" x2="100%" y2="100%">
      <stop offset="0%" stop-color="#FDCFC0"></stop>
      <stop offset="100%" stop-color="#F9B8A8"></stop>
    </linearGradient>
  </defs>

  
  <g transform="translate(115,5)" filter="url(#onesie-glow)">

    
    <path d="&#xA;      M  3,0  Q  0,0  0,4&#xA;      L  0,35 Q -1,43  5,44&#xA;      L  5,88 Q  5,96 13,96&#xA;      L 57,96 Q 65,96 65,88&#xA;      L 65,44 Q 71,43 70,35&#xA;      L 70,4  Q 70,0  67,0&#xA;      L 46,0  Q 43,10 35,21&#xA;               Q 27,10 24,0&#xA;      Z&#xA;    " fill="url(#onesie-grad)" stroke="#F5B0A2" stroke-width="0.5"></path>

    
    <line x1="5" y1="44" x2="65" y2="44" stroke="#F5AEA0" stroke-width="0.75" opacity="0.45"></line>

    
    <path d="&#xA;      M 35,74&#xA;      C 26,68 15,60 20,54&#xA;      C 23,48 30,48 35,54&#xA;      C 40,48 47,48 50,54&#xA;      C 55,60 44,68 35,74 Z&#xA;    " fill="#E45252"></path>
    
    <circle cx="28" cy="55" r="2.2" fill="white" opacity="0.20"></circle>

    
    <circle cx="27" cy="90" r="2.3" fill="white" opacity="0.60"></circle>
    <circle cx="35" cy="90" r="2.3" fill="white" opacity="0.60"></circle>
    <circle cx="43" cy="90" r="2.3" fill="white" opacity="0.60"></circle>

  </g>

  
  <text x="150" y="131" text-anchor="middle" font-family="&#39;Fredoka One&#39;, &#39;Nunito ExtraBold&#39;, &#39;Comic Sans MS&#39;, cursive" font-size="46">
    <tspan fill="#6ECDD4">Baby </tspan><tspan fill="#F07878">kawaii</tspan>
  </text>

  
  <text x="150" y="152" text-anchor="middle" font-family="&#39;Sarabun&#39;, Arial, sans-serif" font-size="12" fill="#B8B8B8" letter-spacing="2.5">
    - Baby clothes -
  </text>

</svg>